<?xml version="1.0" encoding="UTF-8"?>
<!DOCTYPE svg PUBLIC "-//W3C//DTD SVG 1.1//EN" "http://www.w3.org/Graphics/SVG/1.1/DTD/svg11.dtd">
<!-- Creator: CorelDRAW -->
<svg xmlns="http://www.w3.org/2000/svg" xml:space="preserve" width="210mm" height="297mm" version="1.1" style="shape-rendering:geometricPrecision; text-rendering:geometricPrecision; image-rendering:optimizeQuality; fill-rule:evenodd; clip-rule:evenodd"
viewBox="0 0 21000 29700"
 xmlns:xlink="http://www.w3.org/1999/xlink"
 xmlns:xodm="http://www.corel.com/coreldraw/odm/2003">
 <defs>
  <style type="text/css">
   <![CDATA[
    .fil0 {fill:#FEFEFE}
    .fil5 {fill:black}
    .fil1 {fill:#5782AC}
    .fil2 {fill:#7D9DBE}
    .fil3 {fill:#C5C5C5}
    .fil4 {fill:#FEFEFE}
   ]]>
  </style>
 </defs>
 <g id="Camada_x0020_1">
  <metadata id="CorelCorpID_0Corel-Layer"/>
  <g id="_1601130273296">
   <path class="fil0" d="M9317.92 11806.46l340 272.33 260.24 426.57c581.72,427.35 1031.86,1934.33 1030.29,2929.7 -1.39,860.54 -291.31,1884.89 -791.95,2579.74 -48.8,67.73 -81.08,105 -132.55,166.83l-101.63 108.17c-172.77,363.25 -331.46,538.27 -651.03,826.51l439.14 462.13c420.8,-453.16 85.5,-63.82 420.8,-453.16 197.69,-237.88 284.65,-353.06 511.35,-619.99 292.52,-344.41 686.16,-1021.28 792.1,-1539.65 81.12,-249.77 217.87,-1037.3 287.14,-1147.15l5.09 -879.41c-107.18,-183.45 -17.51,26.27 -71.44,-269.59 -18.9,-103.65 -24.74,-221.93 -48.59,-340.29 -54.56,-270.27 -101.69,-325.76 -206.3,-558.52 -81.45,-697.8 -682.54,-1440.55 -1121.81,-1972.62l-426.5 -436.01c-59.8,-228.23 -421.19,387.35 -534.35,444.41z"/>
   <polygon class="fil1" points="13306.36,14782.82 12079.83,14773.03 11807.17,14776.7 11726.91,14939.08 11721.82,15818.49 11715.16,16215.51 13039.72,16188.53 14128.21,16176.47 14475.61,16197.86 14494.26,16781.08 14471.8,18456.56 14478.39,19925.17 15369.5,19963.93 16060.97,19950.12 16044.49,11296.99 14478.35,11298.66 14475.72,14772.39 "/>
   <path class="fil2" d="M11273.47 23256.74l318.08 -5.8 9399.12 0.57 1.86 -435.86 -6131.81 -32.54 -279.58 -6.4 -2976.64 -0.75 -346.64 34.81 -2979.4 -24.06 -279.56 -10.96c-1763.72,83.96 -4023.13,10.75 -5879.59,6.33 -138.25,-0.32 -276.02,0.43 -414.23,-3.99 -55.75,-1.74 -159.47,-13.49 -209.86,-7.65l-228.38 104.79 0.76 282.52c105.81,100.77 -102.82,17.8 127.82,86.99l9878.05 12z"/>
   <path class="fil3" d="M8191.1 8369.1c23.63,472.98 709.51,2045.03 983.48,2358.01l3751.06 -1579.66c-78.56,-375.38 -795.09,-2049.4 -1019.9,-2333.88l-3714.64 1555.53z"/>
   <path class="fil3" d="M14448.52 4749.54l-972.23 364.7c53.35,226.81 1401.22,3603.16 1725.67,3979.32 375.06,-72.61 732.36,-240.94 966.43,-439.17 -158.93,-665.23 -741.65,-1424.79 -784.65,-2063.68l103.16 78.99c192.42,246.31 264,617.03 399.01,914.68 2.32,5.12 99.74,198.33 100.56,199.47 134.69,190.54 10.25,42 175.34,179.61 -68.73,-1153.16 -553.64,-2224.5 -1219.37,-2687.94 60.69,523.56 395.14,720.51 441.3,1315.19 -221.43,-197.44 -316.4,-558.91 -444.36,-881.18 -108.53,-273.26 -72.72,-187.37 -196.31,-456.47 -29.51,-64.21 -84.5,-192.28 -121.16,-256.82 -11.29,-19.86 -24.32,-44.42 -36.03,-63.28l-88.48 -122.45c-10.36,-14.59 -32.25,-40.93 -48.88,-60.97z"/>
   <path class="fil3" d="M9655.15 11175.64l-160.93 -118.99 160.93 118.99c0,86.86 -25.06,137.83 -0.82,137.83 143.91,0 78.02,2.1 143.91,3.49l1092.37 -26.42c1005.09,-738.84 2210.22,1134.48 638.25,1699.34l-90.8 706.77c-4.84,-13.14 -21.68,51.33 -37.48,74.03 104.61,232.76 151.74,288.25 206.3,558.52 23.85,118.36 29.69,236.64 48.59,340.29 53.93,295.86 -35.74,86.14 71.44,269.59l80.26 -162.38c32.32,-437 16.38,-162.52 98.57,-251.76l174.09 248.09 1226.53 9.79c-221.69,-630.31 -456.33,-206.13 -421.55,-1796.25 18.83,-859.72 297.57,-1136.19 -230.09,-1879.41 -541.96,-763.37 -1600.52,-904.14 -2322.13,-355.24 -350.68,266.79 -184.95,363 -677.44,423.72z"/>
   <path class="fil3" d="M11996.61 6182.76c103.65,794.12 1041.47,2399.84 1302.06,3262.87 405.67,-51.58 1272.48,-430.23 1482.2,-635.76l-1350.29 -3163.03c-486.04,91.2 -934.25,384 -1433.97,535.92z"/>
   <path class="fil3" d="M6220.53 11004.61c845.66,-162.7 1463.56,-226.67 2364.32,-86.03l244.75 -277.25c-130.21,-418.91 -642.42,-1648.25 -879.34,-1912.47 -398.27,98.1 -1916.21,745.1 -2144.73,961.48 90.88,499.08 421.48,819.36 415,1314.27z"/>
   <path class="fil1" d="M9681.11 12680.85l66.18 631.75 146.47 1398.72 8.74 3578.48 103.59 -110.26c52.46,-63.02 85.37,-101.01 135.12,-170.05 510.31,-708.27 805.82,-1752.4 807.24,-2629.56 1.6,-1014.6 -457.23,-2550.68 -1050.19,-2986.29 -189.36,300.82 -17.34,143.35 -217.15,287.21z"/>
   <path class="fil3" d="M11434.68 16965.64c213.6,332.21 98.34,2407.6 92.43,2983.06l-566.99 9.4 56.99 2852.67 630.74 -34.81c12.5,-1116.29 254.79,-5905.47 67.31,-6560.45l6.66 -397.02c-69.27,109.85 -206.02,897.38 -287.14,1147.15z"/>
   <path class="fil1" d="M10960.12 19958.1l566.99 -9.4c5.91,-575.46 121.17,-2650.85 -92.43,-2983.06 -105.94,518.37 -499.58,1195.24 -792.1,1539.65 -226.7,266.93 -313.66,382.11 -511.35,619.99 -371.65,447.15 -238.06,135.05 -212.25,830.61l1041.14 2.21z"/>
   <path class="fil3" d="M15369.5 19963.93c486.69,972.03 1186.34,1861.08 1694.64,2812.78l508.72 6.4c-77.71,-380.36 -843.28,-1712.78 -1084.54,-2134.76 -532.53,-931.34 -354.45,-1390.97 -354.45,-2952.87 0,-340.25 124.51,-6077.57 -89.38,-6398.49l16.48 8653.13 -691.47 13.81z"/>
   <path class="fil3" d="M4565.09 11965.78l-74.93 118.96 74.93 -118.96c245.25,-194.1 413.43,-377.13 698.01,-538.19 274.55,-155.41 652.07,-240.31 843.57,-465.8l-413.01 -878.48 -2009.86 804.37c154.51,997.23 445.47,664.7 881.29,1078.1z"/>
   <path class="fil1" d="M11400.58 13770.68c15.8,-22.7 32.64,-87.17 37.48,-74.03l90.8 -706.77 -10.5 -499.97 11.46 -846.48 4.27 -354.59 -643.48 1.7 -1092.37 26.42c17.3,15.87 46.06,14.66 54.03,45.09l426.5 436.01c439.27,532.07 1040.36,1274.82 1121.81,1972.62z"/>
   <path class="fil3" d="M5087.12 22775.75l508.69 10.96c309.5,-483.66 545.77,-928.88 856.16,-1409.84 313.7,-486.01 586.57,-916.64 850.54,-1420.84 -418.28,-7.01 -655.27,-47.87 -922.05,-99.52 243.5,183.38 50.47,72.15 147.26,214.78l-1440.6 2704.46z"/>
   <path class="fil3" d="M14471.8 18456.56l22.46 -1675.48c-113.05,-91.69 -77.17,-28.01 -185.23,-162.03l-180.82 -442.58 -1088.49 12.06c109.06,295.62 450.02,850.93 649.53,1136.01 290.81,415.5 464.66,813.13 782.55,1132.02z"/>
   <path class="fil4" d="M10890.61 11290.54l643.48 -1.7 -4.27 354.59c179.75,82.87 329.86,81.76 275.4,486.62 -31.47,233.75 -107.32,306.47 -286.86,359.86l10.5 499.97c1571.97,-564.86 366.84,-2438.18 -638.25,-1699.34z"/>
   <path class="fil3" d="M7398.33 18452.22l923.83 -97.99 31.68 -1603.83c-190.83,161.99 -161.82,130.13 -299.82,393.89 -101.91,194.77 -113.4,239.66 -227.73,433.51 -161.96,274.61 -325.73,542.75 -427.96,874.42z"/>
   <path class="fil3" d="M3491.02 9928.01c317.61,71.01 371.14,-21.64 681.28,-152.7 539.37,-227.95 506.76,-16.55 529.4,-601.87 -361.68,-86.61 -1249.09,210.18 -1279.6,523.6 -47.27,485.01 -35.09,21.71 68.92,230.97z"/>
   <path class="fil3" d="M3871.92 10030.74l89.62 417.56c250.24,105.4 92.12,104.47 408.81,3.2 113.73,-36.34 298,-123.37 397.59,-161.56l-145.9 -468.18 -750.12 208.98z"/>
   <path class="fil3" d="M9364.02 14778.16l549.72 0.96 -154.05 -1965.29 -54.57 -26.7c302.45,1075.85 -75.53,1290.35 -341.1,1991.03z"/>
   <path class="fil3" d="M11518.36 12489.91c179.54,-53.39 255.39,-126.11 286.86,-359.86 54.46,-404.86 -95.65,-403.75 -275.4,-486.62l-11.46 846.48z"/>
   <path class="fil4" d="M14494.26 16781.08l-18.65 -583.22 -347.4 -21.39 180.82 442.58c108.06,134.02 72.18,70.34 185.23,162.03z"/>
   <path class="fil4" d="M11807.17 14776.7l272.66 -3.67 -174.09 -248.09c-82.19,89.24 -66.25,-185.24 -98.57,251.76z"/>
   <path class="fil5" d="M4565.09 11965.78l-74.93 118.96c-953.16,1040.29 -1307.86,2893.61 -988.79,4698.51 292.81,1656.26 1237.17,2777.61 2879.09,3073.26 266.78,51.65 503.77,92.51 922.05,99.52 755.57,-2.99 1841.21,-75.64 2341,-477.97l-372.22 -361.75c319.57,-288.24 478.26,-463.26 651.03,-826.51 -2.74,-1128.57 28.05,-2362 -21.35,-3478.11 -791.67,-111.38 -2169.54,-31.29 -3022.68,-32.85 -4.02,407.2 -2.49,814.23 -2.35,1221.43l1.1 93.51 1480.21 1.42 -3.41 655.2 -31.68 1603.83 -923.83 97.99c-1172.6,-78.24 -1683.14,-496.62 -2026.38,-1379.37 -681.85,-1961.06 -180.85,-4863.96 2493.6,-4741.76 607.49,27.76 1338.33,470.53 1688.86,397.73 357.7,-74.28 340.18,-674.2 308.36,-564.78 -22.56,77.56 53.47,-401.12 46.52,-574.71 -5.98,-150.14 -24.24,0.18 0.25,-275.04 22.5,-87.74 169.54,-170.36 -970.92,-345.88 -1208.62,-185.98 -1495.44,-123.26 -2663.06,20.75 -412.51,50.87 141.67,-114.72 -470.74,188.3 -735.96,364.14 -604.79,271.59 -1239.73,788.32z"/>
  </g>
 </g>
</svg>
