<?xml version="1.0" encoding="utf-8"?>
<!-- Generator: Adobe Illustrator 21.1.0, SVG Export Plug-In . SVG Version: 6.00 Build 0)  -->
<svg version="1.1" id="Layer_1" xmlns="http://www.w3.org/2000/svg" xmlns:xlink="http://www.w3.org/1999/xlink" x="0px" y="0px"
	 viewBox="0 0 150 150" style="enable-background:new 0 0 150 150;" xml:space="preserve">
<style type="text/css">
	.st0{fill:#00A19B;}
	.st1{fill:#00586F;}
</style>
<polygon class="st0" points="79.8,57.6 79.8,57.6 64.2,85.9 107,62.4 107.7,62.1 150,38.7 116.1,34 111.5,0 84,49.8 "/>
<path class="st1" d="M110.6,68.6c1.9,5.2,3,10.9,3,16.8c0,27.1-22,49.2-49.1,49.2c-27.1,0-49.1-22.1-49.1-49.2s22.1-49.2,49.1-49.2
	c6.1,0,11.8,1.1,17.1,3.1l5.3-14.4c-6.9-2.6-14.5-4.1-22.4-4.1C29,20.8,0,49.8,0,85.4C0,121,29,150,64.4,150
	c35.6,0,64.4-29,64.4-64.6c0-7.8-1.4-15.3-3.9-22.2L110.6,68.6z"/>
<path class="st1" d="M80.8,85.4c0,9-7.3,16.4-16.4,16.4S48,94.5,48,85.4S55.4,69,64.4,69c2,0,3.9,0.4,5.7,1l5.3-14.4
	c-3.4-1.3-7.1-2-11-2c-17.5,0-31.7,14.3-31.7,31.8c0,17.6,14.2,31.8,31.7,31.8s31.7-14.3,31.7-31.8c0-3.8-0.6-7.3-1.9-10.8
	l-14.4,5.4C80.5,81.8,80.8,83.6,80.8,85.4"/>
</svg>
